<svg width="109" height="27" viewBox="0 0 109 27" fill="none" xmlns="http://www.w3.org/2000/svg">
<path d="M6.486 26V15.74H17.582V26H23.282V0.539999H17.582V10.648H6.486V0.539999H0.786V26H6.486ZM32.1568 4.72V0.539999H26.4948L26.5708 4.72H32.1568ZM32.2708 26V6.886H26.5708V26H32.2708ZM41.1073 26V14.03C41.1073 11.94 41.9433 11.332 43.6913 11.332C45.4773 11.332 46.1233 11.978 46.1233 14.03V15.056H51.7853V13.308C51.7853 9.47 50.3033 6.506 46.3133 6.506C43.6153 6.506 41.9053 8.026 40.9553 9.964H40.7273V6.886H35.4453V26H41.1073ZM62.9291 26.38C68.4011 26.38 71.8971 23.986 71.8971 19.92V19.54H66.2731V19.768C66.2731 20.946 65.2851 21.44 63.0051 21.44C59.8891 21.44 58.8251 20.376 58.7111 17.716H71.8211C71.9351 17.07 72.0871 15.968 72.0871 14.904C72.0871 9.926 68.7051 6.506 62.9671 6.506C57.0011 6.506 53.3531 10.382 53.3531 16.5C53.3531 22.542 56.3551 26.38 62.9291 26.38ZM62.7771 11.18C65.4371 11.18 66.7291 12.282 66.6151 14.258H58.7491C58.9771 12.244 60.0411 11.18 62.7771 11.18ZM80.817 26L86.327 16.918H86.707L92.369 26H99.095L91.267 13.384V13.004L99.095 0.539999H92.445L86.935 9.584H86.555L80.893 0.539999H74.167L82.033 13.042V13.422L74.167 26H80.817ZM108.335 26V19.274H101.191V26H108.335Z" fill="black"/>
</svg>
